<?xml version="1.0" encoding="UTF-8"?>
<svg version="1.1" xmlns="http://www.w3.org/2000/svg" width="600" height="600">
<path d="M0 0 C49.5 0 99 0 150 0 C150 75.38781431 150 75.38781431 147 97 C146.82307617 98.28406738 146.64615234 99.56813477 146.46386719 100.89111328 C139.49970168 149.62222992 124.50931128 199.99795386 88 235 C87.20722656 235.7940625 86.41445313 236.588125 85.59765625 237.40625 C49.05810478 273.89085477 -1.63615795 289.16920683 -51.625 296.25 C-53.20982178 296.47659302 -53.20982178 296.47659302 -54.82666016 296.70776367 C-86.70203467 300.92090211 -117.67316357 300 -150 300 C-150 250.5 -150 201 -150 150 C-133.83 149.34 -117.66 148.68 -101 148 C-77.44542244 144.63506035 -53.97823808 141.28247593 -35 126 C-34.24460937 125.41863281 -33.48921875 124.83726562 -32.7109375 124.23828125 C-10.79298753 106.27460061 -5.77036219 77.39253533 -2 51 C-1.34 34.17 -0.68 17.34 0 0 Z " fill="#48E053" transform="translate(375,225)"/>
<path d="M0 0 C49.5 0 99 0 150 0 C150 49.5 150 99 150 150 C100.5 150 51 150 0 150 C0 100.5 0 51 0 0 Z " fill="#48E054" transform="translate(75,225)"/>
<path d="M0 0 C49.5 0 99 0 150 0 C150 49.5 150 99 150 150 C100.5 150 51 150 0 150 C0 100.5 0 51 0 0 Z " fill="#48E054" transform="translate(225,75)"/>
</svg>
